<mxfile host="app.diagrams.net" modified="2023-04-08T21:43:35.268Z" agent="Mozilla/5.0 (Windows NT 10.0; Win64; x64) AppleWebKit/537.36 (KHTML, like Gecko) Chrome/111.0.0.0 Safari/537.36 OPR/97.0.0.0" etag="dWaJNet-kFqWw6vMgEjq" version="21.1.5" type="device">
  <diagram name="Page-1" id="7e0a89b8-554c-2b80-1dc8-d5c74ca68de4">
    <mxGraphModel dx="415" dy="220" grid="1" gridSize="1.9685" guides="1" tooltips="1" connect="1" arrows="1" fold="1" page="1" pageScale="1" pageWidth="1100" pageHeight="850" background="none" math="0" shadow="0">
      <root>
        <mxCell id="0" />
        <mxCell id="1" parent="0" />
        <mxCell id="kgSXuMjjGfZ-QqxamhFL-58" value="Controller" style="rounded=0;whiteSpace=wrap;html=1;" vertex="1" parent="1">
          <mxGeometry x="448.82" y="238.19" width="114.17" height="139.76" as="geometry" />
        </mxCell>
        <mxCell id="kgSXuMjjGfZ-QqxamhFL-59" value="" style="endArrow=classic;html=1;rounded=0;exitX=1;exitY=0.25;exitDx=0;exitDy=0;" edge="1" parent="1">
          <mxGeometry width="50" height="50" relative="1" as="geometry">
            <mxPoint x="562.9899999999999" y="249.14249999999996" as="sourcePoint" />
            <mxPoint x="633" y="248.98" as="targetPoint" />
          </mxGeometry>
        </mxCell>
        <mxCell id="kgSXuMjjGfZ-QqxamhFL-60" value="PWM rate" style="edgeLabel;html=1;align=left;verticalAlign=middle;resizable=0;points=[];" vertex="1" connectable="0" parent="kgSXuMjjGfZ-QqxamhFL-59">
          <mxGeometry x="0.4307" y="1" relative="1" as="geometry">
            <mxPoint x="25" as="offset" />
          </mxGeometry>
        </mxCell>
        <mxCell id="kgSXuMjjGfZ-QqxamhFL-61" value="" style="endArrow=classic;html=1;rounded=0;exitX=1;exitY=0.25;exitDx=0;exitDy=0;" edge="1" parent="1">
          <mxGeometry width="50" height="50" relative="1" as="geometry">
            <mxPoint x="562.9884999999999" y="273.2585" as="sourcePoint" />
            <mxPoint x="632.9884999999999" y="273.2585" as="targetPoint" />
          </mxGeometry>
        </mxCell>
        <mxCell id="kgSXuMjjGfZ-QqxamhFL-62" value="DIR 1" style="edgeLabel;html=1;align=left;verticalAlign=middle;resizable=0;points=[];" vertex="1" connectable="0" parent="kgSXuMjjGfZ-QqxamhFL-61">
          <mxGeometry x="0.4307" y="1" relative="1" as="geometry">
            <mxPoint x="25" as="offset" />
          </mxGeometry>
        </mxCell>
        <mxCell id="kgSXuMjjGfZ-QqxamhFL-63" value="" style="endArrow=classic;html=1;rounded=0;exitX=1;exitY=0.25;exitDx=0;exitDy=0;" edge="1" parent="1">
          <mxGeometry width="50" height="50" relative="1" as="geometry">
            <mxPoint x="562.9869999999999" y="296.877" as="sourcePoint" />
            <mxPoint x="632.9869999999999" y="296.877" as="targetPoint" />
          </mxGeometry>
        </mxCell>
        <mxCell id="kgSXuMjjGfZ-QqxamhFL-64" value="DIR 2" style="edgeLabel;html=1;align=left;verticalAlign=middle;resizable=0;points=[];" vertex="1" connectable="0" parent="kgSXuMjjGfZ-QqxamhFL-63">
          <mxGeometry x="0.4307" y="1" relative="1" as="geometry">
            <mxPoint x="25" as="offset" />
          </mxGeometry>
        </mxCell>
        <mxCell id="kgSXuMjjGfZ-QqxamhFL-65" value="" style="endArrow=classic;html=1;rounded=0;exitX=1;exitY=0.25;exitDx=0;exitDy=0;" edge="1" parent="1">
          <mxGeometry width="50" height="50" relative="1" as="geometry">
            <mxPoint x="562.9884999999998" y="319.061" as="sourcePoint" />
            <mxPoint x="632.9984999999999" y="318.8985" as="targetPoint" />
          </mxGeometry>
        </mxCell>
        <mxCell id="kgSXuMjjGfZ-QqxamhFL-66" value="PWM rate" style="edgeLabel;html=1;align=left;verticalAlign=middle;resizable=0;points=[];" vertex="1" connectable="0" parent="kgSXuMjjGfZ-QqxamhFL-65">
          <mxGeometry x="0.4307" y="1" relative="1" as="geometry">
            <mxPoint x="25" as="offset" />
          </mxGeometry>
        </mxCell>
        <mxCell id="kgSXuMjjGfZ-QqxamhFL-67" value="" style="endArrow=classic;html=1;rounded=0;exitX=1;exitY=0.25;exitDx=0;exitDy=0;" edge="1" parent="1">
          <mxGeometry width="50" height="50" relative="1" as="geometry">
            <mxPoint x="562.9869999999999" y="343.177" as="sourcePoint" />
            <mxPoint x="632.9869999999999" y="343.177" as="targetPoint" />
          </mxGeometry>
        </mxCell>
        <mxCell id="kgSXuMjjGfZ-QqxamhFL-68" value="DIR 1" style="edgeLabel;html=1;align=left;verticalAlign=middle;resizable=0;points=[];" vertex="1" connectable="0" parent="kgSXuMjjGfZ-QqxamhFL-67">
          <mxGeometry x="0.4307" y="1" relative="1" as="geometry">
            <mxPoint x="25" as="offset" />
          </mxGeometry>
        </mxCell>
        <mxCell id="kgSXuMjjGfZ-QqxamhFL-69" value="" style="endArrow=classic;html=1;rounded=0;exitX=1;exitY=0.25;exitDx=0;exitDy=0;" edge="1" parent="1">
          <mxGeometry width="50" height="50" relative="1" as="geometry">
            <mxPoint x="562.9854999999998" y="366.7955" as="sourcePoint" />
            <mxPoint x="632.9854999999998" y="366.7955" as="targetPoint" />
          </mxGeometry>
        </mxCell>
        <mxCell id="kgSXuMjjGfZ-QqxamhFL-70" value="DIR 2" style="edgeLabel;html=1;align=left;verticalAlign=middle;resizable=0;points=[];" vertex="1" connectable="0" parent="kgSXuMjjGfZ-QqxamhFL-69">
          <mxGeometry x="0.4307" y="1" relative="1" as="geometry">
            <mxPoint x="25" as="offset" />
          </mxGeometry>
        </mxCell>
        <mxCell id="kgSXuMjjGfZ-QqxamhFL-71" value="" style="shape=curlyBracket;whiteSpace=wrap;html=1;rounded=1;flipH=1;labelPosition=right;verticalLabelPosition=middle;align=left;verticalAlign=middle;size=0.3108500000000106;" vertex="1" parent="1">
          <mxGeometry x="696.85" y="244.09" width="14.09" height="57.09" as="geometry" />
        </mxCell>
        <mxCell id="kgSXuMjjGfZ-QqxamhFL-73" value="Actuator 1" style="text;html=1;align=center;verticalAlign=middle;resizable=0;points=[];autosize=1;strokeColor=none;fillColor=none;" vertex="1" parent="1">
          <mxGeometry x="710.9354999999999" y="258.858" width="74.803" height="27.558999999999997" as="geometry" />
        </mxCell>
        <mxCell id="kgSXuMjjGfZ-QqxamhFL-74" value="" style="shape=curlyBracket;whiteSpace=wrap;html=1;rounded=1;flipH=1;labelPosition=right;verticalLabelPosition=middle;align=left;verticalAlign=middle;size=0.3108500000000106;" vertex="1" parent="1">
          <mxGeometry x="696.8485" y="312.98850000000004" width="14.09" height="57.09" as="geometry" />
        </mxCell>
        <mxCell id="kgSXuMjjGfZ-QqxamhFL-75" value="Actuator 2" style="text;html=1;align=center;verticalAlign=middle;resizable=0;points=[];autosize=1;strokeColor=none;fillColor=none;" vertex="1" parent="1">
          <mxGeometry x="710.9339999999999" y="327.7565" width="74.803" height="27.558999999999997" as="geometry" />
        </mxCell>
      </root>
    </mxGraphModel>
  </diagram>
</mxfile>
